{
	"asset":{
		"generator":"Khronos glTF Blender I/O v4.0.44",
		"version":"2.0"
	},
	"scene":0,
	"scenes":[
		{
			"name":"Scene",
			"nodes":[
				0
			]
		}
	],
	"nodes":[
		{
			"mesh":0,
			"name":"Curve",
			"rotation":[
				0.7071068286895752,
				0,
				0,
				0.7071068286895752
			],
			"scale":[
				9.321527481079102,
				9.321527481079102,
				9.321527481079102
			],
			"translation":[
				0.07058703899383545,
				3.78733491897583,
				-0.20944665372371674
			]
		}
	],
	"animations":[
		{
			"channels":[
				{
					"sampler":0,
					"target":{
						"node":0,
						"path":"rotation"
					}
				}
			],
			"name":"CurveAction",
			"samplers":[
				{
					"input":5,
					"interpolation":"LINEAR",
					"output":6
				}
			]
		}
	],
	"materials":[
		{
			"doubleSided":true,
			"name":"Car chrome",
			"pbrMetallicRoughness":{
				"baseColorFactor":[
					0.35055580735206604,
					0.35055580735206604,
					0.35055580735206604,
					1
				],
				"roughnessFactor":0.10581991821527481
			}
		}
	],
	"meshes":[
		{
			"name":"Curve",
			"primitives":[
				{
					"attributes":{
						"POSITION":0,
						"NORMAL":1,
						"TEXCOORD_0":2,
						"TEXCOORD_1":3
					},
					"indices":4,
					"material":0
				}
			]
		}
	],
	"accessors":[
		{
			"bufferView":0,
			"componentType":5126,
			"count":13554,
			"max":[
				0.1752476990222931,
				0.022469136863946915,
				0.0802331194281578
			],
			"min":[
				-0.17824634909629822,
				-0.02246912568807602,
				-0.0563691183924675
			],
			"type":"VEC3"
		},
		{
			"bufferView":1,
			"componentType":5126,
			"count":13554,
			"type":"VEC3"
		},
		{
			"bufferView":2,
			"componentType":5126,
			"count":13554,
			"type":"VEC2"
		},
		{
			"bufferView":3,
			"componentType":5126,
			"count":13554,
			"type":"VEC2"
		},
		{
			"bufferView":4,
			"componentType":5123,
			"count":27828,
			"type":"SCALAR"
		},
		{
			"bufferView":5,
			"componentType":5126,
			"count":231,
			"max":[
				9.958333333333334
			],
			"min":[
				0.375
			],
			"type":"SCALAR"
		},
		{
			"bufferView":6,
			"componentType":5126,
			"count":231,
			"type":"VEC4"
		}
	],
	"bufferViews":[
		{
			"buffer":0,
			"byteLength":162648,
			"byteOffset":0,
			"target":34962
		},
		{
			"buffer":0,
			"byteLength":162648,
			"byteOffset":162648,
			"target":34962
		},
		{
			"buffer":0,
			"byteLength":108432,
			"byteOffset":325296,
			"target":34962
		},
		{
			"buffer":0,
			"byteLength":108432,
			"byteOffset":433728,
			"target":34962
		},
		{
			"buffer":0,
			"byteLength":55656,
			"byteOffset":542160,
			"target":34963
		},
		{
			"buffer":0,
			"byteLength":924,
			"byteOffset":597816
		},
		{
			"buffer":0,
			"byteLength":3696,
			"byteOffset":598740
		}
	],
	"buffers":[
		{
			"byteLength":602436,
			"uri":"bm-logogltf.bin"
		}
	]
}
